<?xml version="1.0" encoding="UTF-8" standalone="no"?>
<!-- Created with Inkscape (http://www.inkscape.org/) -->

<svg
   xmlns:dc="http://purl.org/dc/elements/1.1/"
   xmlns:cc="http://creativecommons.org/ns#"
   xmlns:rdf="http://www.w3.org/1999/02/22-rdf-syntax-ns#"
   xmlns:svg="http://www.w3.org/2000/svg"
   xmlns="http://www.w3.org/2000/svg"
   xmlns:sodipodi="http://sodipodi.sourceforge.net/DTD/sodipodi-0.dtd"
   xmlns:inkscape="http://www.inkscape.org/namespaces/inkscape"
   width="210mm"
   height="297mm"
   viewBox="0 0 210 297"
   version="1.1"
   id="svg8"
   inkscape:version="0.92.3 (2405546, 2018-03-11)"
   sodipodi:docname="Sketchups.svg">
  <defs
     id="defs2" />
  <sodipodi:namedview
     id="base"
     pagecolor="#ffffff"
     bordercolor="#666666"
     borderopacity="1.0"
     inkscape:pageopacity="0.0"
     inkscape:pageshadow="2"
     inkscape:zoom="0.36291236"
     inkscape:cx="-304.28573"
     inkscape:cy="-996.53908"
     inkscape:document-units="mm"
     inkscape:current-layer="layer1"
     showgrid="false"
     inkscape:snap-global="false"
     inkscape:window-width="1920"
     inkscape:window-height="1017"
     inkscape:window-x="-8"
     inkscape:window-y="-8"
     inkscape:window-maximized="1" />
  <metadata
     id="metadata5">
    <rdf:RDF>
      <cc:Work
         rdf:about="">
        <dc:format>image/svg+xml</dc:format>
        <dc:type
           rdf:resource="http://purl.org/dc/dcmitype/StillImage" />
        <dc:title></dc:title>
      </cc:Work>
    </rdf:RDF>
  </metadata>
  <g
     inkscape:label="Layer 1"
     inkscape:groupmode="layer"
     id="layer1">
    <rect
       style="fill:#ffffff;stroke:#000000;stroke-width:5;stroke-miterlimit:4;stroke-dasharray:none"
       id="rect4554"
       width="205.61905"
       height="393.09521"
       x="-405.94644"
       y="368.81546" />
    <ellipse
       style="fill:#ffffff;stroke:#000000;stroke-width:5;stroke-miterlimit:4;stroke-dasharray:none"
       id="path4560"
       cx="-368.1488"
       cy="574.43451"
       rx="27.970238"
       ry="27.214285" />
    <ellipse
       style="fill:#ffffff;stroke:#000000;stroke-width:5;stroke-miterlimit:4;stroke-dasharray:none"
       id="path4560-7"
       cx="-303.13693"
       cy="572.92267"
       rx="27.970238"
       ry="27.214285" />
    <ellipse
       style="fill:#ffffff;stroke:#000000;stroke-width:5;stroke-miterlimit:4;stroke-dasharray:none"
       id="path4560-7-9"
       cx="-240.39285"
       cy="574.43457"
       rx="27.970238"
       ry="27.214285" />
    <ellipse
       style="fill:#ffffff;stroke:#000000;stroke-width:5;stroke-miterlimit:4;stroke-dasharray:none"
       id="path4560-4"
       cx="-366.6369"
       cy="637.17865"
       rx="27.970238"
       ry="27.214285" />
    <ellipse
       style="fill:#ffffff;stroke:#000000;stroke-width:5;stroke-miterlimit:4;stroke-dasharray:none"
       id="path4560-4-2"
       cx="-303.89285"
       cy="637.17865"
       rx="27.970238"
       ry="27.214285" />
    <ellipse
       style="fill:#ffffff;stroke:#000000;stroke-width:5;stroke-miterlimit:4;stroke-dasharray:none"
       id="path4560-4-2-8"
       cx="-241.1488"
       cy="638.69055"
       rx="27.970238"
       ry="27.214285" />
    <rect
       style="fill:#ffffff;stroke:#000000;stroke-width:5;stroke-miterlimit:4;stroke-dasharray:none"
       id="rect4702"
       width="184.45239"
       height="31.75"
       x="-396.11902"
       y="715.04169" />
    <flowRoot
       xml:space="preserve"
       id="flowRoot4704"
       style="font-style:normal;font-weight:normal;font-size:53.333334px;line-height:1.25;font-family:sans-serif;letter-spacing:0px;word-spacing:0px;fill:#000000;fill-opacity:1;stroke:none;"
       transform="scale(0.26458333)"><flowRegion
         id="flowRegion4706"
         style="font-size:53.333334px;"><rect
           id="rect4708"
           width="697.14288"
           height="120"
           x="-1497.1427"
           y="2702.5198"
           style="font-size:53.333334px;" /></flowRegion><flowPara
         id="flowPara4710" /></flowRoot>    <rect
       y="687.58228"
       x="-395.55084"
       height="59.209404"
       width="183.88423"
       id="rect4712"
       style="fill:#ffffff;stroke:#000000;stroke-width:6.81747532;stroke-miterlimit:4;stroke-dasharray:none" />
    <flowRoot
       xml:space="preserve"
       id="flowRoot4778"
       style="fill:black;fill-opacity:1;stroke:none;font-family:sans-serif;font-style:normal;font-weight:normal;font-size:40px;line-height:1.25;letter-spacing:0px;word-spacing:0px"><flowRegion
         id="flowRegion4780"><rect
           id="rect4782"
           width="694.99554"
           height="149.28119"
           x="-1496.069"
           y="2703.5933" /></flowRegion><flowPara
         id="flowPara4784"></flowPara></flowRoot>    <flowRoot
       xml:space="preserve"
       id="flowRoot4802"
       style="font-style:normal;font-weight:normal;font-size:40px;line-height:1.25;font-family:sans-serif;letter-spacing:0px;word-spacing:0px;fill:#000000;fill-opacity:1;stroke:none"
       transform="matrix(0.26458333,0,0,0.26458333,18.89881,9.0714285)"><flowRegion
         id="flowRegion4804"><rect
           id="rect4806"
           width="605.71429"
           height="162.85715"
           x="-1457.1428"
           y="2628.2339" /></flowRegion><flowPara
         id="flowPara4808">Tap Emotion to Record or</flowPara><flowPara
         id="flowPara4810">Hold to Add a Comment</flowPara><flowPara
         id="flowPara4812" /></flowRoot>    <rect
       style="fill:#ffffff;stroke:#000000;stroke-width:5;stroke-miterlimit:4;stroke-dasharray:none"
       id="rect4814"
       width="138.33928"
       height="57.452377"
       x="-372.68451"
       y="380.15475" />
    <flowRoot
       xml:space="preserve"
       id="flowRoot4824"
       style="font-style:normal;font-weight:normal;font-size:40px;line-height:1.25;font-family:sans-serif;letter-spacing:0px;word-spacing:0px;fill:#000000;fill-opacity:1;stroke:none"
       transform="matrix(0.26458333,0,0,0.26458333,21.922619,5.2916667)"><flowRegion
         id="flowRegion4826"><rect
           id="rect4828"
           width="394.28571"
           height="105.71429"
           x="-1342.8572"
           y="1493.9482" /></flowRegion><flowPara
         id="flowPara4830">FeelsBook</flowPara></flowRoot>    <rect
       style="fill:#ffffff;stroke:#000000;stroke-width:5;stroke-miterlimit:4;stroke-dasharray:none"
       id="rect4832"
       width="61.232143"
       height="59.720234"
       x="-388.55951"
       y="461.79761" />
    <rect
       style="fill:#ffffff;stroke:#000000;stroke-width:5;stroke-miterlimit:4;stroke-dasharray:none"
       id="rect4834"
       width="60.476189"
       height="58.964287"
       x="-284.99405"
       y="464.06546" />
    <flowRoot
       xml:space="preserve"
       id="flowRoot4836"
       style="font-style:normal;font-weight:normal;font-size:40px;line-height:1.25;font-family:sans-serif;letter-spacing:0px;word-spacing:0px;fill:#000000;fill-opacity:1;stroke:none"
       transform="matrix(1.7694341,0,0,1.5642731,1551.2336,-2361.4199)"><flowRegion
         id="flowRegion4838"><rect
           id="rect4840"
           width="142.85715"
           height="131.42857"
           x="-1037.1428"
           y="1802.5197" /></flowRegion><flowPara
         id="flowPara4842">#</flowPara></flowRoot>    <rect
       style="fill:#ffffff;stroke:#000000;stroke-width:5;stroke-miterlimit:4;stroke-dasharray:none"
       id="rect4857"
       width="42.333332"
       height="3.7797618"
       x="-378.73215"
       y="473.89285" />
    <rect
       style="fill:#ffffff;stroke:#000000;stroke-width:5.97200823;stroke-miterlimit:4;stroke-dasharray:none"
       id="rect4859"
       width="42.117279"
       height="2.0518012"
       x="-379.00211"
       y="491.0098" />
    <rect
       style="fill:#ffffff;stroke:#000000;stroke-width:5;stroke-miterlimit:4;stroke-dasharray:none"
       id="rect4861"
       width="43.089287"
       height="3.7797618"
       x="-381"
       y="504.13095" />
    <rect
       style="fill:#ffffff;stroke:#000000;stroke-width:5;stroke-miterlimit:4;stroke-dasharray:none"
       id="rect4554-9"
       width="205.61905"
       height="393.09521"
       x="-184.45239"
       y="368.81549" />
    <flowRoot
       xml:space="preserve"
       id="flowRoot4878"
       style="fill:black;fill-opacity:1;stroke:none;font-family:sans-serif;font-style:normal;font-weight:normal;font-size:74.66666667px;line-height:1.25;letter-spacing:0px;word-spacing:0px;"><flowRegion
         id="flowRegion4880"
         style="font-size:74.66666667px;"><rect
           id="rect4882"
           width="702.85712"
           height="140"
           x="-1491.4286"
           y="2962.5198"
           style="font-size:74.66666667px;" /></flowRegion><flowPara
         id="flowPara4884"></flowPara></flowRoot>    <flowRoot
       xml:space="preserve"
       id="flowRoot4886"
       style="font-style:normal;font-weight:normal;font-size:40px;line-height:1.25;font-family:sans-serif;letter-spacing:0px;word-spacing:0px;fill:#000000;fill-opacity:1;stroke:none"
       transform="matrix(0.87980629,0,0,0.998203,895.29338,-2162.2323)"><flowRegion
         id="flowRegion4888"><rect
           id="rect4890"
           width="665.71429"
           height="125.71429"
           x="-1471.4286"
           y="2933.9482" /></flowRegion><flowPara
         id="flowPara4892">Main Menu</flowPara><flowPara
         id="flowPara4894" /></flowRoot>    <flowRoot
       xml:space="preserve"
       id="flowRoot4896"
       style="font-style:normal;font-weight:normal;font-size:40px;line-height:1.25;font-family:sans-serif;letter-spacing:0px;word-spacing:0px;fill:#000000;fill-opacity:1;stroke:none"
       transform="matrix(1.1025095,0,0,1.1416253,556.8494,-2588.4749)"><flowRegion
         id="flowRegion4898"><rect
           id="rect4900"
           width="700"
           height="111.42857"
           x="-668.57141"
           y="2936.8054" /></flowRegion><flowPara
         id="flowPara4902">Statistics</flowPara><flowPara
         id="flowPara5158" /><flowPara
         id="flowPara5156" /><flowPara
         id="flowPara4904" /></flowRoot>    <rect
       style="fill:#ffffff;stroke:#000000;stroke-width:5;stroke-miterlimit:4;stroke-dasharray:none"
       id="rect4906"
       width="182.94048"
       height="48.380955"
       x="-174.625"
       y="381.66666" />
    <flowRoot
       xml:space="preserve"
       id="flowRoot4929"
       style="font-style:normal;font-weight:normal;font-size:40px;line-height:1.25;font-family:sans-serif;letter-spacing:0px;word-spacing:0px;fill:#000000;fill-opacity:1;stroke:none"
       transform="matrix(0.45772535,0,0,0.66385876,127.24838,-599.58558)"><flowRegion
         id="flowRegion4931"><rect
           id="rect4933"
           width="628.57141"
           height="100"
           x="-631.42859"
           y="1491.0911" /></flowRegion><flowPara
         id="flowPara4935">Emotion: COUNT</flowPara><flowPara
         id="flowPara4937" /></flowRoot>    <rect
       style="fill:#ffffff;stroke:#000000;stroke-width:5;stroke-miterlimit:4;stroke-dasharray:none"
       id="rect4906-8"
       width="182.94048"
       height="48.380955"
       x="-173.86905"
       y="444.41071" />
    <flowRoot
       xml:space="preserve"
       id="flowRoot4929-1"
       style="font-style:normal;font-weight:normal;font-size:40px;line-height:1.25;font-family:sans-serif;letter-spacing:0px;word-spacing:0px;fill:#000000;fill-opacity:1;stroke:none"
       transform="matrix(0.45772536,0,0,0.66385877,128.00434,-536.8415)"><flowRegion
         id="flowRegion4931-7"><rect
           id="rect4933-9"
           width="628.57141"
           height="100"
           x="-631.42859"
           y="1491.0911" /></flowRegion><flowPara
         id="flowPara4935-6">Emotion: COUNT</flowPara><flowPara
         id="flowPara4937-1" /></flowRoot>    <rect
       style="fill:#ffffff;stroke:#000000;stroke-width:5;stroke-miterlimit:4;stroke-dasharray:none"
       id="rect4906-9"
       width="182.94048"
       height="48.380955"
       x="-173.1131"
       y="503.37497" />
    <flowRoot
       xml:space="preserve"
       id="flowRoot4929-4"
       style="font-style:normal;font-weight:normal;font-size:40px;line-height:1.25;font-family:sans-serif;letter-spacing:0px;word-spacing:0px;fill:#000000;fill-opacity:1;stroke:none"
       transform="matrix(0.45772536,0,0,0.66385877,128.76029,-477.87722)"><flowRegion
         id="flowRegion4931-5"><rect
           id="rect4933-99"
           width="628.57141"
           height="100"
           x="-631.42859"
           y="1491.0911" /></flowRegion><flowPara
         id="flowPara4935-0">Emotion: COUNT</flowPara><flowPara
         id="flowPara4937-2" /></flowRoot>    <rect
       style="fill:#ffffff;stroke:#000000;stroke-width:5;stroke-miterlimit:4;stroke-dasharray:none"
       id="rect4906-1"
       width="182.94048"
       height="48.380955"
       x="-173.11308"
       y="561.58331" />
    <flowRoot
       xml:space="preserve"
       id="flowRoot4929-44"
       style="font-style:normal;font-weight:normal;font-size:40px;line-height:1.25;font-family:sans-serif;letter-spacing:0px;word-spacing:0px;fill:#000000;fill-opacity:1;stroke:none"
       transform="matrix(0.45772536,0,0,0.66385877,128.7603,-419.66889)"><flowRegion
         id="flowRegion4931-4"><rect
           id="rect4933-6"
           width="628.57141"
           height="100"
           x="-631.42859"
           y="1491.0911" /></flowRegion><flowPara
         id="flowPara4935-7">Emotion: COUNT</flowPara><flowPara
         id="flowPara4937-4" /></flowRoot>    <rect
       style="fill:#ffffff;stroke:#000000;stroke-width:5;stroke-miterlimit:4;stroke-dasharray:none"
       id="rect4906-6"
       width="182.94048"
       height="48.380955"
       x="-172.35715"
       y="619.79163" />
    <flowRoot
       xml:space="preserve"
       id="flowRoot4929-8"
       style="font-style:normal;font-weight:normal;font-size:40px;line-height:1.25;font-family:sans-serif;letter-spacing:0px;word-spacing:0px;fill:#000000;fill-opacity:1;stroke:none"
       transform="matrix(0.45772536,0,0,0.66385877,129.51625,-360.7046)"><flowRegion
         id="flowRegion4931-8"><rect
           id="rect4933-7"
           width="628.57141"
           height="100"
           x="-631.42859"
           y="1491.0911" /></flowRegion><flowPara
         id="flowPara4935-63">Emotion: COUNT</flowPara><flowPara
         id="flowPara4937-23" /></flowRoot>    <rect
       style="fill:#ffffff;stroke:#000000;stroke-width:5;stroke-miterlimit:4;stroke-dasharray:none"
       id="rect4906-0"
       width="182.94048"
       height="48.380955"
       x="-170.84523"
       y="678.75592" />
    <flowRoot
       xml:space="preserve"
       id="flowRoot4929-6"
       style="font-style:normal;font-weight:normal;font-size:40px;line-height:1.25;font-family:sans-serif;letter-spacing:0px;word-spacing:0px;fill:#000000;fill-opacity:1;stroke:none"
       transform="matrix(0.45772536,0,0,0.66385877,131.02816,-302.49627)"><flowRegion
         id="flowRegion4931-80"><rect
           id="rect4933-4"
           width="628.57141"
           height="100"
           x="-631.42859"
           y="1491.0911" /></flowRegion><flowPara
         id="flowPara4935-633">Emotion: COUNT</flowPara><flowPara
         id="flowPara4937-45" /></flowRoot>    <rect
       style="fill:#ffffff;stroke:#000000;stroke-width:5;stroke-miterlimit:4;stroke-dasharray:none"
       id="rect4554-5"
       width="205.61905"
       height="393.09521"
       x="39.309525"
       y="368.81549" />
    <flowRoot
       xml:space="preserve"
       id="flowRoot5146"
       style="font-style:normal;font-weight:normal;font-size:40px;line-height:1.25;font-family:sans-serif;letter-spacing:0px;word-spacing:0px;fill:#000000;fill-opacity:1;stroke:none"
       transform="matrix(1.4250339,0,0,1.0933003,-163.09472,-2426.5845)"><flowRegion
         id="flowRegion5148"><rect
           id="rect5150"
           width="774.28571"
           height="111.42857"
           x="142.85715"
           y="2919.6626" /></flowRegion><flowPara
         id="flowPara5152">History</flowPara><flowPara
         id="flowPara5154" /></flowRoot>    <ellipse
       style="fill:#ffffff;stroke:#000000;stroke-width:4.10512161;stroke-miterlimit:4;stroke-dasharray:none"
       id="path5160"
       cx="231.47517"
       cy="571.12494"
       rx="16.122135"
       ry="21.590054" />
    <ellipse
       style="fill:#ffffff;stroke:#000000;stroke-width:4.67827559;stroke-miterlimit:4;stroke-dasharray:none"
       id="path5162"
       cx="143.98849"
       cy="572.58307"
       rx="23.126118"
       ry="22.032534" />
    <ellipse
       style="fill:#ffffff;stroke:#000000;stroke-width:4.15373993;stroke-miterlimit:4;stroke-dasharray:none"
       id="path5164"
       cx="60.876148"
       cy="574.77026"
       rx="18.284994"
       ry="23.752913" />
    <ellipse
       style="fill:#ffffff;stroke:#000000;stroke-width:4.36614084;stroke-miterlimit:4;stroke-dasharray:none"
       id="path5162-6"
       cx="192.10619"
       cy="572.58301"
       rx="20.001434"
       ry="22.188601" />
    <ellipse
       style="fill:#ffffff;stroke:#000000;stroke-width:4.1437006;stroke-miterlimit:4;stroke-dasharray:none"
       id="path5162-8"
       cx="99.516098"
       cy="574.7702"
       rx="17.925488"
       ry="22.299822" />
    <path
       style="fill:none;stroke:#000000;stroke-width:0.26458332px;stroke-linecap:butt;stroke-linejoin:miter;stroke-opacity:1"
       d="m 114.46175,533.9431 c -0.97208,-0.72906 -2.13834,-1.2537 -2.91623,-2.18717 -0.49197,-0.59037 -0.44364,-1.47363 -0.72905,-2.18716 -0.20182,-0.50453 -0.50836,-0.96154 -0.72906,-1.45811 -0.75167,-1.69127 -1.49981,-3.385 -2.18716,-5.10339 -1.14165,-2.85412 -1.80208,-5.88373 -2.91623,-8.74866 -0.8675,-2.23073 -1.94415,-4.37433 -2.91622,-6.56151 -1.21509,-2.4302 -2.636199,-4.76787 -3.645278,-7.29057 -0.942289,-2.35572 -1.33382,-4.90117 -2.187167,-7.29054 -0.365535,-1.02351 -0.972074,-1.94416 -1.458114,-2.91624 -1.215091,-2.43017 -2.55624,-4.80131 -3.645278,-7.29054 -0.616051,-1.40814 -0.887288,-2.9473 -1.458111,-4.37435 -0.403632,-1.00907 -1.054478,-1.90715 -1.458111,-2.91621 -0.570822,-1.42706 -0.822102,-2.97511 -1.45811,-4.37433 -0.562457,-2.31918 -2.684534,-3.75084 -3.645279,-5.83245 -1.312685,-2.84414 -2.579124,-7.21477 -4.374335,-10.20678 -0.901618,-1.5027 -2.132512,-2.80691 -2.916224,-4.37433 -0.448104,-0.89622 -0.377232,-1.97803 -0.729054,-2.91624 -0.381606,-1.01761 -1.016717,-1.92307 -1.458113,-2.91621 -1.562339,-3.51525 -1.121487,-3.42072 -2.916222,-6.56151 -0.434724,-0.76075 -1.095531,-1.38948 -1.458111,-2.18718 -0.8592,-1.89023 -1.38857,-3.9158 -2.187167,-5.83242 -3.195394,-7.66895 0.22946,1.18796 -2.916225,-5.10339 -0.82769,-1.65539 -1.421309,-3.41852 -2.187164,-5.10339 -0.449729,-0.9894 -1.029997,-1.9173 -1.458114,-2.91623 -0.302723,-0.70636 -0.385373,-1.49982 -0.729054,-2.18718 -1.267431,-2.53484 -3.201593,-4.71051 -4.374335,-7.29054 -0.636008,-1.39922 -0.852665,-2.96162 -1.458111,-4.37433 -0.135382,-0.31591 -0.486037,-0.48604 -0.729057,-0.72906 -0.486036,-0.48604 -1.117084,-0.86133 -1.45811,-1.45812 -0.649296,-1.13625 -0.872845,-2.47475 -1.458111,-3.64527 -0.153699,-0.30739 -0.538417,-0.4431 -0.729057,-0.72906 -0.301426,-0.45215 -0.427627,-1.00597 -0.729057,-1.45812 -0.190637,-0.28596 -0.645699,-0.39563 -0.729054,-0.72906 -0.176823,-0.70728 0.326044,-1.53506 0,-2.18715 0.216639,-2.26753 -1.760884,-0.0896 -2.187167,-0.72906 -0.426284,-0.63942 -0.385376,-1.49982 -0.729057,-2.18718 -1.668301,-3.33658 0.302175,3.0937 -1.458111,-2.18715 -0.07685,-0.23056 0.171842,-0.55721 0,-0.72906 -0.171839,-0.17184 -0.557215,0.17185 -0.729054,0 -0.171841,-0.17184 0.108681,-0.5117 0,-0.72906 -0.45045,-0.9009 -0.703892,-0.72906 -1.458113,-0.72906"
       id="path5187"
       inkscape:connector-curvature="0" />
    <path
       style="fill:none;stroke:#000000;stroke-width:0.26458332px;stroke-linecap:butt;stroke-linejoin:miter;stroke-opacity:1"
       d="m 157.47603,541.23367 c 0.71536,-0.89421 3.60058,-4.28495 4.37434,-5.83245 0.58526,-1.17054 0.87284,-2.47475 1.45811,-3.64529 3.04162,-6.08323 1.69648,-1.36703 5.10339,-8.74866 0.64409,-1.39552 0.81402,-2.97882 1.45811,-4.37433 1.88417,-3.29732 3.5717,-6.03142 5.10339,-9.47772 0.31212,-0.70226 0.41694,-1.48492 0.72906,-2.18718 1.10349,-2.48285 2.57498,-4.79322 3.64527,-7.29057 0.30273,-0.70633 0.42634,-1.48079 0.72906,-2.18715 0.42812,-0.99893 1.07651,-1.89862 1.45811,-2.91624 0.35182,-0.93818 0.35693,-1.98588 0.72906,-2.91621 0.60544,-1.51363 1.45811,-2.91621 2.18717,-4.37433 0.72905,-1.45812 1.45811,-2.91624 2.18716,-4.37433 0.72906,-1.45812 1.50401,-2.89417 2.18717,-4.37435 0.77558,-1.68043 1.35948,-3.448 2.18717,-5.10339 0.63371,-1.26741 1.55345,-2.37784 2.18716,-3.64527 1.6077,-3.21541 2.51244,-6.80823 3.64528,-10.20678 0.24302,-0.72906 0.41694,-1.48492 0.72906,-2.18718 0.66209,-1.48971 1.50401,-2.89414 2.18717,-4.37433 0.77558,-1.68042 1.35947,-3.448 2.18716,-5.10339 0.87622,-1.75241 1.94415,-3.40225 2.91623,-5.10339 0.97207,-1.70111 1.94414,-3.40225 2.91622,-5.10339 0.97207,-1.70111 2.10547,-3.31972 2.91622,-5.10339 0.41463,-0.91217 0.33435,-1.99525 0.72906,-2.91621 0.34515,-0.80536 1.11295,-1.38181 1.45811,-2.18717 0.3947,-0.92097 0.17325,-2.08251 0.72905,-2.91622 0.48604,-0.72906 1.70113,-0.72906 2.18717,-1.45811 0.55581,-0.83371 0.32211,-2.0006 0.72906,-2.91622 0.57551,-1.29492 1.55345,-2.37786 2.18716,-3.64529 0.58527,-1.17052 0.9426,-2.4424 1.45812,-3.64527 0.21405,-0.49948 0.52724,-0.95359 0.72905,-1.45812 0.28541,-0.71353 0.30277,-1.54773 0.72906,-2.18715 0.57191,-0.85789 1.58788,-1.34819 2.18716,-2.18718 0.6317,-0.88437 0.97208,-1.94416 1.45811,-2.91621 0.24302,-0.48604 0.55722,-0.94261 0.72906,-1.45812 0.0769,-0.23056 -0.17184,-0.55721 0,-0.72906 0.17184,-0.17185 0.51169,0.10869 0.72906,0 1.01195,-0.50599 0.72905,-1.29723 0.72905,-2.18718"
       id="path5189"
       inkscape:connector-curvature="0" />
    <path
       style="fill:none;stroke:#000000;stroke-width:0.26458332px;stroke-linecap:butt;stroke-linejoin:miter;stroke-opacity:1"
       d="m 161.85037,606.11961 c 1.10077,0.44032 3.47191,0.83354 4.37433,2.18718 0.30143,0.45214 0.34481,1.07386 0.72906,1.45812 0.17184,0.17182 0.59425,-0.20222 0.72905,0 0.42629,0.63942 0.33367,1.52818 0.72906,2.18715 0.35364,0.58941 1.04569,0.90823 1.45811,1.45812 0.65209,0.86944 0.85526,2.01194 1.45811,2.91621 1.1122,1.6683 0.5771,-0.45585 1.45811,2.18718 0.36453,1.09357 -0.72905,0.72906 0,2.18717 0.3074,0.61479 1.15072,0.84331 1.45812,1.4581 0.4481,0.89622 0.33435,1.99525 0.72905,2.91623 0.34516,0.80537 1.18103,1.35591 1.45811,2.18716 0.46746,1.40237 0.21002,2.99024 0.72906,4.37433 0.24135,0.64359 1.10447,0.8687 1.45811,1.45811 0.39539,0.65898 0.44364,1.47365 0.72905,2.18718 0.20182,0.50454 0.48604,0.97208 0.72906,1.45809 0.72906,1.70114 1.49981,3.385 2.18717,5.10342 1.2276,3.06898 1.80449,6.36487 2.91622,9.47772 0.36554,1.02349 1.00839,1.92683 1.45811,2.91621 0.76586,1.68489 1.55468,3.36405 2.18717,5.10339 0.34242,0.94168 0.31443,2.00406 0.72906,2.91624 0.81075,1.78366 2.18856,3.28424 2.91622,5.10339 0.74426,1.86065 0.77326,3.94911 1.45811,5.83244 0.29944,0.82347 1.03258,1.42121 1.45811,2.18716 0.79171,1.42507 1.51258,2.89025 2.18717,4.37433 0.5926,1.30373 1.72011,4.19777 2.18717,5.83244 0.014,0.0491 1.45341,5.82071 1.45811,5.83245 0.12764,0.31912 0.57535,0.42167 0.72905,0.72906 0.34368,0.68736 0.38538,1.49982 0.72906,2.18718 0.1537,0.30739 0.62037,0.40301 0.72905,0.72903 0.1537,0.46112 -0.21736,1.02341 0,1.45812 0.10868,0.21736 0.59426,-0.20219 0.72906,0 0.42628,0.63942 0.30277,1.54776 0.72906,2.18718 0.1348,0.20219 0.62037,-0.21738 0.72905,0 0.32605,0.65209 -0.32604,1.53509 0,2.18715 -0.1899,1.54033 1.15668,0.27691 1.45811,0.72906 2.94065,4.41098 -1.05694,0.29186 1.45811,3.6453 0.41242,0.54988 1.07684,0.88617 1.45811,1.45809 0.13481,0.20222 -0.1348,0.52686 0,0.72906 0.38128,0.57192 1.0457,0.90823 1.45812,1.45812 0.32604,0.43471 0.42763,1.00597 0.72905,1.45812 0.38128,0.57189 1.15072,0.8433 1.45811,1.45809 0.10869,0.21738 -0.10868,0.5117 0,0.72906 0.1537,0.30739 0.62038,0.40301 0.72906,0.72906 0.1537,0.46109 -0.21736,1.02338 0,1.45812 0.10868,0.21735 0.52685,-0.13481 0.72906,0 0.57191,0.38126 1.07683,0.88619 1.45811,1.45809 0.1348,0.20222 -0.17184,0.55724 0,0.72906 0.17184,0.17185 0.48603,0 0.72905,0 0.24302,0.24302 0.53842,0.4431 0.72906,0.72906 0.30142,0.45214 0.34481,1.07386 0.72905,1.45812 0.17184,0.17184 0.55722,-0.17185 0.72906,0 1.50844,1.50844 -2.3051,-0.059 0.72906,1.45812 0.21736,0.10866 0.55721,-0.17185 0.72905,0 0.17184,0.17182 -0.17184,0.55721 0,0.72903 0.17184,0.17184 0.55722,-0.17182 0.72906,0 0.17184,0.17184 -0.17184,0.55724 0,0.72906 0.17184,0.17184 0.55721,-0.17182 0.72905,0 0.34368,0.34369 -0.34368,1.11445 0,1.45812 0.17184,0.17184 0.5117,-0.10869 0.72906,0 0.30739,0.15369 0.48603,0.48604 0.72905,0.72906 0.24302,0.24302 0.57536,0.42166 0.72906,0.72905 0.10868,0.21736 -0.0769,0.49851 0,0.72906 1.76028,5.28085 -0.21019,-1.14945 1.45811,2.18716 0.10868,0.21735 -0.17184,0.55721 0,0.72906 0.17184,0.17184 0.55722,-0.17185 0.72906,0 0.17184,0.17184 0,0.48603 0,0.72905 0,0.48604 -0.21737,1.02339 0,1.45812 0.21736,0.43471 1.11443,-0.34369 1.45811,0 0.36453,0.36452 -0.36453,1.82264 0,2.18715 0.17184,0.17185 0.55721,-0.17182 0.72905,0 0.36453,0.36455 -0.36452,1.82264 0,2.18718 0.17184,0.17185 0.5117,-0.10869 0.72906,0 3.03415,1.51707 -0.77939,-0.0503 0.72906,1.45812 0.17183,0.17182 0.55721,-0.17185 0.72905,0 0.34368,0.34367 -0.21736,1.02338 0,1.45809 -0.1899,1.54033 1.15668,0.27692 1.45811,0.72906 0.42628,0.63942 0.44365,1.47365 0.72906,2.18718 -0.40571,0.94888 1.1597,1.59033 1.45811,2.18715 0.10868,0.21738 0,0.48604 0,0.72906 0,1.19375 0.26437,1.45812 1.45811,1.45812"
       id="path5208"
       inkscape:connector-curvature="0" />
    <path
       style="fill:none;stroke:#000000;stroke-width:0.26458332px;stroke-linecap:butt;stroke-linejoin:miter;stroke-opacity:1"
       d="m 122.48136,601.74528 c -1.39828,2.32029 -2.2515,4.96758 -3.64528,7.29057 -0.45081,0.75134 -1.06625,1.40345 -1.45811,2.18715 -0.58527,1.17054 -0.97208,2.4302 -1.45811,3.6453 -0.48604,1.21507 -1.01088,2.41535 -1.45811,3.64527 -0.78789,2.16667 -1.33094,4.42092 -2.18717,6.5615 -6.1025,15.25625 -0.27274,0.61368 -2.91622,6.56149 -0.75167,1.69127 -1.35948,3.44802 -2.18717,5.10338 -0.39186,0.78373 -1.06626,1.40346 -1.45811,2.18718 -5.06528,10.13055 0.61,0.33978 -4.37434,9.47772 -0.67854,1.24402 -1.55345,2.37787 -2.187164,3.6453 -0.0598,0.11959 -2.882696,7.23691 -2.916221,7.29054 -0.546452,0.87432 -1.543082,1.38208 -2.187168,2.18718 -0.339463,0.42431 -0.486037,0.97208 -0.729056,1.45812 -0.486037,0.97205 -0.855256,2.01191 -1.458111,2.91621 -0.190641,0.28596 -0.538417,0.44309 -0.729057,0.72906 -0.301427,0.45214 -0.427628,1.00597 -0.729054,1.45812 -0.19064,0.28593 -0.575358,0.42164 -0.729057,0.72903 -0.10868,0.21738 0.10868,0.5117 0,0.72906 -1.111649,2.22332 -0.577969,-1.3334 -1.458111,2.18718 -0.135286,0.54115 0.22378,2.69242 0,2.91621 -0.171841,0.17184 -0.557215,-0.17182 -0.729056,0 -0.171839,0.17184 0.108683,0.5117 0,0.72906 -1.721369,3.44273 0.383413,-4.44987 -1.458111,2.91623 -0.124039,0.49615 0.199355,1.78845 0,2.18716 -0.153699,0.30739 -0.486037,0.48603 -0.729057,0.72905 -0.243017,0.48604 -0.527238,0.95359 -0.729054,1.45812 -0.03779,0.0945 -1.443707,4.35034 -1.458111,4.37433 -0.353644,0.58942 -1.150715,0.84331 -1.458113,1.45812 -0.217361,0.43471 0.153699,0.997 0,1.45809 -0.10868,0.32605 -0.538417,0.4431 -0.729054,0.72906 -0.301429,0.45215 -0.34481,1.07387 -0.729057,1.45812 -0.171839,0.17185 -0.557215,-0.17184 -0.729057,0 -0.171839,0.17185 0.108683,0.51171 0,0.72906 -0.831892,1.66378 -1.641557,2.00845 -2.187165,3.64527 -0.613619,1.84087 1.480773,-0.75927 -0.729056,2.18718 -0.412417,0.54988 -1.076833,0.8862 -1.458111,1.45809 -0.134803,0.20222 0.10868,0.51171 0,0.72906 -0.391856,0.78372 -1.132694,1.37364 -1.458113,2.18718 -0.18051,0.45127 0.153699,0.997 0,1.45812 -0.108681,0.32604 -0.575355,0.42164 -0.729055,0.72906 -0.34368,0.68733 -0.385376,1.49979 -0.729056,2.18715 -0.153697,0.30739 -0.620374,0.40301 -0.729054,0.72906 -0.153699,0.46109 0,0.97208 0,1.45812 0,0.24302 0.10868,0.51168 0,0.72906 -0.153699,0.30739 -0.575358,0.42164 -0.729057,0.72903 -0.10868,0.21738 0.134803,0.52686 0,0.72906 -0.381278,0.57192 -1.150715,0.84333 -1.458111,1.45812 -0.219752,0.4395 0.218083,3.4272 0,3.64527 -0.171841,0.17185 -0.486037,0 -0.729057,0 -0.243017,0.72906 -0.542668,1.44163 -0.729054,2.18718 -0.149619,0.59846 0.214321,2.48758 0,2.91621 -0.307398,0.61481 -1.150715,0.84333 -1.458113,1.45812 -0.217361,0.43473 0.34368,1.11442 0,1.45811 -0.171839,0.17185 -0.557215,-0.17184 -0.729054,0 -0.343681,0.34367 0.34368,1.11443 0,1.4581 -0.171842,0.17184 -0.557215,-0.17182 -0.729057,0 -0.171839,0.17184 0.171842,0.55724 0,0.72906 -1.944148,0 0.24302,-0.24302 -0.729057,0.72906 -0.171839,0.17184 -0.557215,-0.17185 -0.729054,0 -0.34368,0.34369 0.343681,1.11442 0,1.45811 -0.171841,0.17185 -0.557215,-0.17184 -0.729056,0 -0.343681,0.34367 0.34368,1.11443 0,1.45812 -0.171839,0.17182 -0.557216,-0.17184 -0.729054,0 -0.171842,0.17182 0.171838,0.55722 0,0.72906 -0.171842,0.17182 -0.557218,-0.17184 -0.729057,0 -0.343681,0.34367 0.34368,1.11443 0,1.45809 -0.343681,0.3437 -1.11443,-0.34366 -1.458111,0 -0.171842,0.17185 0.10868,0.51171 0,0.72906 -0.153699,0.3074 -0.575358,0.42167 -0.729057,0.72906 -0.10868,0.21736 0.171842,0.55722 0,0.72906 -0.34368,0.34367 -1.11443,-0.34369 -1.45811,0 -0.343681,0.34367 0.34368,1.11443 0,1.45812 -0.171842,0.17182 -0.557216,-0.17185 -0.729057,0 -0.171839,0.17182 0.171841,0.55721 0,0.72903 -0.171839,0.17185 -0.557215,-0.17182 -0.729054,0 -0.484966,0.48499 0.484962,0.97317 0,1.45812 -0.343681,0.3437 -1.114433,-0.34366 -1.458114,0 -0.972074,0.97208 1.215094,0.72906 -0.729054,0.72906"
       id="path5214"
       inkscape:connector-curvature="0" />
    <rect
       style="fill:#ffffff;stroke:#000000;stroke-width:5;stroke-miterlimit:4;stroke-dasharray:none"
       id="rect5216"
       width="180.80582"
       height="28.433172"
       x="51.033901"
       y="718.39417" />
    <flowRoot
       xml:space="preserve"
       id="flowRoot5218"
       style="font-style:normal;font-weight:normal;font-size:40px;line-height:1.25;font-family:sans-serif;letter-spacing:0px;word-spacing:0px;fill:#000000;fill-opacity:1;stroke:none"
       transform="matrix(0.79262564,0,0,0.26458333,-121.95199,0)"><flowRegion
         id="flowRegion5220"><rect
           id="rect5222"
           width="608.96246"
           height="46.843266"
           x="228.70535"
           y="2742.7456" /></flowRegion><flowPara
         id="flowPara5224">Comment</flowPara><flowPara
         id="flowPara5226" /></flowRoot>  </g>
</svg>
